<svg xmlns="http://www.w3.org/2000/svg" xmlns:xlink="http://www.w3.org/1999/xlink" version="1.1" x="0px" y="0px" viewBox="0 0 52 65" enable-background="new 0 0 52 52" xml:space="preserve"><g><path d="M26,32c-4.1002808,0-8.2902222,0.3945923-12,1.1591187V13.6800537L25.6900024,9L14,4.3300171V2h-2v31.6204834   C6.1986694,35.1088257,2,37.598938,2,41c0,5.8500366,12.3700562,9,24,9c11.6400146,0,24-3.1499634,24-9   C50,35.1600342,37.6400146,32,26,32z M11,41.5c0-0.8430176,0.381958-1.5979004,1-2.1964111v4.3928223   C11.381958,43.0979004,11,42.3430786,11,41.5z M15.5,45c-0.53125,0-1.0302124-0.0817871-1.5-0.2081909v-6.5836182   C14.4697876,38.0817871,14.96875,38,15.5,38c2.5300293,0,4.5,1.5400391,4.5,3.5C20,43.460022,18.0300293,45,15.5,45z"/></g><text x="0" y="67" fill="#000000" font-size="5px" font-weight="bold" font-family="'Helvetica Neue', Helvetica, Arial-Unicode, Arial, Sans-serif">Created by Dinosoft Labs</text><text x="0" y="72" fill="#000000" font-size="5px" font-weight="bold" font-family="'Helvetica Neue', Helvetica, Arial-Unicode, Arial, Sans-serif">from the Noun Project</text></svg>